<svg fill="none" height="12" viewBox="0 0 7 12" width="7" xmlns="http://www.w3.org/2000/svg"><path d="m6.78016 5.27997c.1407.14052.21983.33116.22.53v.38c-.0023.19842-.08111.38828-.22.53l-5.14 5.13003c-.09388.0946-.22168.1479-.355.1479-.13331 0-.26111-.0533-.354995-.1479l-.71-.71c-.094064-.0922-.1470716-.2183-.1470716-.35s.0530076-.2579.1470716-.35l4.449995-4.44003-4.449995-4.44c-.094657-.09388-.1478994-.22168-.1478994-.355 0-.13331.0532424-.261112.1478994-.354996l.71-.7c.093885-.094656.221685-.1478988.354995-.1478988.13332 0 .26112.0532428.355.1478988z" fill="#7c7c7c"/></svg>