<svg fill="none" height="22" viewBox="0 0 22 22" width="22" xmlns="http://www.w3.org/2000/svg"><path clip-rule="evenodd" d="m16.2149 12.2832c0 .3715-.305.6715-.6802.6715h-9.06938c-.37638 0-.67907-.3-.67907-.6715 0-.3716.30269-.6716.67907-.6716h9.06938c.3752 0 .6802.3.6802.6716zm0-5.03642c0 .37157-.305.67152-.6802.67152h-9.06938c-.37638 0-.67907-.29995-.67907-.67152s.30269-.67151.67907-.67151h9.06938c.3752 0 .6802.29994.6802.67151zm4.4247 10.53382-2.7639 2.6167-2.9747-2.8148c-.2642-.2484-.6791-.2495-.9421.0012l-2.9668 2.8136-2.96798-2.8136c-.26302-.2507-.67907-.2507-.94322 0l-2.96681 2.8136-2.75369-2.6155v-13.7527c0-1.48069 1.2221-2.68607 2.72081-2.68607h13.83759c1.4998 0 2.7208 1.20538 2.7208 2.68607zm-2.7208-17.7806h-13.83759c-2.25033 0-4.08121 1.8075-4.08121 4.0291v13.9687c0 .0134.00680202.0257.00793569.0391-.00906936.1869.05441621.375.20065931.5149l3.433885 3.2602c.26415.2496.6802.2507.94322 0l2.96681-2.8137 2.96799 2.8137c.263.2507.6779.2507.942 0l2.968-2.8137 2.9747 2.8148c.1315.1242.3005.1869.4705.1869.1689 0 .339-.0627.4705-.1869l3.4441-3.2602c.1473-.1399.2108-.3291.2018-.516.0011-.0145.0079-.0257.0079-.0391v-13.9687c0-2.2216-1.8309-4.0291-4.0812-4.0291z" fill="#ff7643" fill-rule="evenodd"/></svg>