<svg fill="none" height="23" viewBox="0 0 22 23" width="22" xmlns="http://www.w3.org/2000/svg"><path clip-rule="evenodd" d="m20.6878 20.9973c0 .2593-.1804.4817-.4199.5175-2.1804.3244-4.3958.2148-6.5522-.3244-6.1859-1.5601-10.9426-6.5941-12.1192-12.83012-.19136-.96773-.28431-1.955-.28431-3.0182 0-1.2509.13888-2.48335.41334-3.66265.0514-.21915.26682-.37754.51395-.37754h3.73646c.9415 0 1.70804.75943 1.70804 1.69462v1.91594l-2.21651.9417c-.78185.33198-1.24112 1.15868-1.09131 1.96585.92072 4.9884 4.6889 9.1241 9.60084 10.5355.9022.2604 1.8634-.1833 2.2297-1.0296l.842-1.9495h1.9311c.9415 0 1.708.7605 1.708 1.6946zm-1.708-6.9228h-2.3642c-.2624 0-.4997.1551-.6036.3938l-1.0115 2.3456c-.1049.2441-.387.3688-.6582.2918-4.43853-1.2758-7.84367-5.0133-8.67582-9.52112-.03936-.21482.09404-.43939.31821-.53378l2.61345-1.10986c.24166-.10306.39803-.33849.39803-.59886v-2.34557c0-1.65231-1.35484-2.99651-3.02023-2.99651h-3.73646c-.85184 0-1.605254.583679-1.792241 1.38759-.296337 1.27368-.447239 2.60486-.447239 3.95449 0 1.14891.100601 2.21754.307272 3.26339 1.269548 6.72643 6.405688 12.16183 13.085828 13.84663 1.4522.3635 2.9339.5479 4.4046.5479.8846 0 1.7802-.0673 2.6638-.1985.8769-.1302 1.5385-.9048 1.5385-1.8042v-3.9263c0-1.6523-1.3548-2.9965-3.0202-2.9965z" fill="#ff7643" fill-rule="evenodd"/></svg>