<svg fill="none" height="16" viewBox="0 0 20 16" width="20" xmlns="http://www.w3.org/2000/svg"><path clip-rule="evenodd" d="m10 12.0152c-1.50849 0-2.73585-1.2015-2.73585-2.67618 0-1.4756 1.22736-2.67712 2.73585-2.67712 1.5085 0 2.7358 1.20152 2.7358 2.67712 0 1.47468-1.2273 2.67618-2.7358 2.67618zm0-6.45977c-2.13302 0-3.86792 1.69708-3.86792 3.78359 0 2.08558 1.7349 3.78268 3.86792 3.78268 2.133 0 3.8679-1.6971 3.8679-3.78268 0-2.08651-1.7349-3.78359-3.8679-3.78359zm8.8679 7.84127c0 .8259-.6868 1.4968-1.5311 1.4968h-14.67359c-.84434 0-1.53113-.6709-1.53113-1.4968v-7.97324c0-.82501.68679-1.49682 1.53113-1.49682h2.08679c.67453 0 1.28396-.41712 1.51604-1.03911l.54717-1.47007c.06792-.18548.25094-.31007.45283-.31007h5.46796c.2018 0 .3849.12459.4537.311l.5463 1.47006c.232.62107.8415 1.03819 1.516 1.03819h2.0868c.8443 0 1.5311.67181 1.5311 1.49682zm-1.5311-10.57654h-2.0868c-.2009 0-.383-.1255-.4528-.31099l-.5453-1.46914c-.2302-.621989-.8406-1.04003-1.5179-1.04003h-5.46796c-.67736 0-1.28774.418041-1.51698 1.0391l-.54623 1.46915c-.06981.18641-.25189.31191-.45283.31191h-2.08679c-1.46887 0-2.66321 1.1683-2.66321 2.6033v7.97324c0 1.4359 1.19434 2.6033 2.66321 2.6033h14.67359c1.4689 0 2.6632-1.1674 2.6632-2.6033v-7.97324c0-1.435-1.1943-2.6033-2.6632-2.6033z" fill="#757575" fill-rule="evenodd"/></svg>