<svg fill="none" height="18" viewBox="0 0 22 18" width="22" xmlns="http://www.w3.org/2000/svg"><path clip-rule="evenodd" d="m18.4524 16.6669c0 .7361-.5916 1.3331-1.3222 1.3331-.7317 0-1.3232-.597-1.3232-1.3331s.5915-1.3332 1.3232-1.3332c.7306 0 1.3222.5971 1.3222 1.3332zm-6.4968 0c0 .7361-.5925 1.3331-1.3232 1.3331-.73059 0-1.32319-.597-1.32319-1.3331s.5926-1.3332 1.32319-1.3332c.7307 0 1.3232.5971 1.3232 1.3332zm8.7769-10.9161-1.7778 5.3357c-.3134.941-1.1862 1.5726-2.1701 1.5726h-6.2726c-.97447 0-1.84416-.6222-2.16277-1.5496l-2.04761-5.93796h14.01778c.1422 0 .2709.06587.3539.18193.083.11711.1038.2614.0592.39733zm.9506-1.13029c-.3134-.4402-.8251-.70369-1.3637-.70369h-14.45055l-.86865-2.51153c-.29059-.840666-1.07933-1.40529-1.96251-1.40529h-2.416038c-.343517 0-.621652.281266-.621652.62736 0 .347139.278135.62736.621652.62736h2.416038c.35389 0 .67043.22689.78666.56358l1.00876 2.91827c.00311.00941.00623.01777.00934.02718l2.33094 6.75775c.49192 1.4303 1.83382 2.3923 3.33861 2.3923h6.2726c1.5194 0 2.8665-.9755 3.3501-2.4279l1.7788-5.33673c.1712-.51548.0851-1.08742-.2304-1.52866z" fill="#7c7c7c" fill-rule="evenodd"/></svg>