<svg viewBox="0 0 3000 3000" xmlns="http://www.w3.org/2000/svg"><path d="m1446.8 217.61h132q4.71 4.44 9.43 0h14.14c41.75 5.86 84.09 4.27 125.8 12.14 209.8 39.6 397.22 126.9 560.68 264.05 169.87 142.54 291.06 319.48 365.48 528.33 28.82 80.89 49.75 163.78 58.86 249.33a715.65 715.65 0 0 1 3.83 75.08c.15 262.33-1 524.66.54 787 .87 143.76-52.8 263.38-153.63 362.15-73 71.47-161.54 116.08-262.94 133-23.14 3.87-46.75 4.65-70.28 4.65q-382.89 0-765.77-.1c-153-.26-298.35-36.15-438.41-96.47-154.53-66.55-288.18-162.7-403.33-284.53-71.5-75.64-130.77-160.37-180.54-252.06-66.66-122.82-109.85-253.08-131.48-390.9-5.71-36.36-3.44-73.31-9.83-109.52v-47.14a134.51 134.51 0 0 0 0-56.57v-23.56q4.45-4.73 0-9.43v-18.86c6-56.64 9.07-113.56 21.33-169.52 44.74-204.11 134.19-385.76 270.77-544.07q170.15-197.19 406.46-306.61c109.52-50.82 224.19-85.37 344.26-100.6 23.08-2.93 46.64-1.12 69.64-5.76h14.19c2.6 2.9 6.11 2.31 9.43 2.42 3.27-.13 6.77.45 9.37-2.45z" fill="#d3d3d3"/><g fill="#f2f2f2"><path d="m1509.21 1726c133.55 0 267.11-.3 400.66.16 51.74.18 91.12 35 99.54 85.74 7.78 46.87-20.21 93.27-66.06 109.37-13.48 4.73-27.44 6.27-41.67 6.27q-393.6 0-787.19-.09c-52 0-91.65-27.42-104.92-71.29a101.06 101.06 0 0 1 41.09-113.59c19-12.45 40-16.77 62.6-16.72q197.97.49 395.95.15z"/><path d="m1508.07 1524.5c-132.77 0-265.53.41-398.29-.17-70.25-.31-116.6-57.77-101.46-123.89 9.44-41.26 46.1-72.67 88.49-75.74 5.47-.4 11-.51 16.48-.51q394.76 0 789.51 0c56.61 0 96.09 30.63 105.77 80.83 11.67 60.56-31.24 116.87-92.8 118.77-56.51 1.74-113.11.61-169.67.65q-119.01.13-238.03.06z"/><path d="m1306 1122.65c-64.39 0-128.77.15-193.15 0-62.16-.18-107.58-42.56-107.86-100.24-.29-57.11 45.5-100.91 107.3-101.11q194.33-.62 388.65 0c62.89.18 107 42.19 107.15 100.52.11 59.33-44.5 100.73-108.95 100.86s-128.73-.03-193.14-.03z"/></g></svg>