<svg fill="none" height="20" viewBox="0 0 22 20" width="22" xmlns="http://www.w3.org/2000/svg"><path clip-rule="evenodd" d="m16.9476 8.17739c0 .71776-.5895 1.30018-1.3159 1.30018-.7275 0-1.3169-.58242-1.3169-1.30018 0-.71879.5894-1.3012 1.3169-1.3012.7264 0 1.3159.58241 1.3159 1.3012zm-4.6305 0c0 .71776-.5894 1.30018-1.3169 1.30018-.7264 0-1.31587-.58242-1.31587-1.30018 0-.71879.58947-1.3012 1.31587-1.3012.7275 0 1.3169.58241 1.3169 1.3012zm-4.63149 0c0 .71776-.58944 1.30018-1.31587 1.30018-.72747 0-1.31691-.58242-1.31691-1.30018 0-.71879.58944-1.3012 1.31691-1.3012.72643 0 1.31587.58241 1.31587 1.3012zm10.97119 5.12381c-.4421.4358-.9371.809-1.4726 1.1095-.577.324-.9215.889-.9215 1.5124v2.4609l-3.4163-2.5173c-.328-.325-.7638-.5035-1.2277-.5035h-3.216c-3.94658 0-7.15739-3.1674-7.15739-7.06071 0-1.89388.74095-3.66881 2.08588-4.99667 1.36569-1.33812 3.16723-2.07537 5.07151-2.07537h4.8712c2.0309 0 4.0192.83466 5.4545 2.2907 1.3542 1.37298 2.0724 3.13971 2.0246 4.97308-.0477 1.82207-.7918 3.52837-2.0962 4.80697zm.964-10.63829c-1.6676-1.692902-3.9808-2.66291-6.3469-2.66291h-4.8712c-2.23532 0-4.34716.864394-5.94945 2.43425-1.582574 1.56165-2.45325 3.64624-2.45325 5.86824 0 4.57211 3.76912 8.29121 8.4027 8.29121h3.216c.1308 0 .2542.0502.4141.1999l4.0119 2.9572c.165.1631.383.2492.605.2492.1111 0 .2221-.0215.329-.0646.3207-.1312.5293-.4378.5293-.7824v-3.2299c0-.1743.1089-.3404.2926-.443.631-.3547 1.2163-.7946 1.7351-1.3073 1.5307-1.5012 2.4055-3.5068 2.4616-5.64678.0571-2.16765-.7866-4.25122-2.3765-5.86311z" fill="#b6b6b6" fill-rule="evenodd"/></svg>