<svg fill="none" height="22" viewBox="0 0 22 22" width="22" xmlns="http://www.w3.org/2000/svg"><path clip-rule="evenodd" d="m20.7557 11c0-5.37962-4.3763-9.75472-9.7552-9.75472-5.37986 0-9.7562 4.3751-9.7562 9.75472 0 5.3796 4.37634 9.7547 9.7562 9.7547 5.3789 0 9.7552-4.3751 9.7552-9.7547zm1.2443 0c0 6.0656-4.9347 11-10.9995 11-6.06583 0-11.0005-4.9344-11.0005-11 0-6.06557 4.93467-11 11.0005-11 6.0648 0 10.9995 4.93443 10.9995 11zm-6.7165-2.98557c.2428.2418.2428.63717 0 .88l-5.0925 5.09117c-.1214.1214-.28016.1826-.43997.1826-.15878 0-.31757-.0612-.43899-.1826l-2.59446-2.5944c-.24388-.2418-.24388-.6371 0-.88.24284-.2428.63616-.2428.879 0l2.15445 2.1533 4.65237-4.65007c.2429-.24283.6362-.24283.8801 0z" fill="#ff7643" fill-rule="evenodd"/></svg>