<svg fill="none" height="22" viewBox="0 0 22 22" width="22" xmlns="http://www.w3.org/2000/svg"><path clip-rule="evenodd" d="m14.3758 8.50465-2.4948 2.49485 2.4948 2.4959c.2428.2418.2428.6361 0 .879-.1215.1214-.2813.1826-.4411.1826-.1577 0-.3175-.0612-.44-.1826l-2.4947-2.4949-2.49472 2.4949c-.12141.1214-.28226.1826-.44.1826-.15981 0-.31962-.0612-.44103-.1826-.24284-.2429-.24284-.6372 0-.879l2.49475-2.4959-2.49475-2.49485c-.24284-.24181-.24284-.63617 0-.88004.24386-.24285.63716-.24285.88103 0l2.49472 2.49479 2.4947-2.49479c.2449-.24285.6393-.24181.8811 0 .2428.24387.2428.63823 0 .88004zm-3.3758 12.25105c-5.37962 0-9.75472-4.3763-9.75472-9.7562 0-5.37886 4.3751-9.7552 9.75472-9.7552 5.3796 0 9.7547 4.37634 9.7547 9.7552 0 5.3799-4.3751 9.7562-9.7547 9.7562zm0-20.7557c-6.06557 0-11 4.93467-11 10.9995 0 6.0658 4.93443 11.0005 11 11.0005 6.0656 0 11-4.9347 11-11.0005 0-6.06483-4.9344-10.9995-11-10.9995z" fill="#ff7643" fill-rule="evenodd"/></svg>