<svg viewBox="0 0 3000 3000" xmlns="http://www.w3.org/2000/svg"><path d="m2687.82 2502.79-81.24 81.21c-76.79 66.18-167.39 98.92-267.14 105.26-141.45 9-267.58-31.61-370.32-130.81-110.17-106.38-217-216.21-325.37-324.47-32-32-32.87-32-65.69.81q-159.45 159.33-318.82 318.76c-137.55 137.45-368.76 180.59-543.24 93.27-178.64-89.42-287.47-232.82-295.68-437.82-5.48-136.67 38.8-258.35 136.44-357.1 107-108.22 215.13-215.33 322.68-323 28.52-28.55 28.52-30.6-.17-59.34-109.6-109.73-220.83-217.88-328.51-329.45-96.91-100.44-136.67-224.11-130.23-362.3 4.19-89.81 29.56-174.49 83.58-246.81 91.64-122.65 207.68-208.45 366.27-221.15 145.75-11.67 275.93 28.25 382.17 129.74 111.45 106.47 218.45 217.46 327.52 326.41 30.13 30.09 32.1 30.13 61.58.68 105-104.84 208.87-210.8 315-314.45 140.66-137.39 307.47-173.55 495.26-121.78 60 16.55 111.65 48.32 158.57 88.44l85.31 85.32c66.71 77.63 99.38 169.11 105.59 269.87 8.59 139.54-32.54 264-129.14 365.27-106.91 112.15-218.6 219.75-328.14 329.39-29.91 29.94-29.92 31.4 0 61.36q161.28 161.46 322.7 322.79c148.65 148.93 179.56 403.87 71.29 584.58-14.25 23.79-34.97 42.42-50.27 65.32z" fill="#6c64d8"/></svg>