<svg fill="none" height="32" viewBox="0 0 32 32" width="32" xmlns="http://www.w3.org/2000/svg"><path clip-rule="evenodd" d="m15.481 15.1013c.4961-.2864 1.1312-.1162 1.4176.3798.2864.4961.1163 1.1312-.3798 1.4176s-1.1312.1163-1.4176-.3798-.1162-1.1312.3798-1.4176zm2.2462 3.8905-7.7109.4628 4.2563-6.4464 7.7109-.4628zm5.4255-7.7649-9.2651.5561c-.1969.0118-.3749.1146-.4835.2792l-5.11422 7.7457c-.12951.197-.13662.4504-.01884.6544.11779.204.34075.3245.57611.3108l9.26515-.5561c.0981-.0064.1917-.0352.2744-.083.0827-.0477.1545-.1143.2091-.1961l5.1141-7.7458c.1296-.197.1367-.4504.0189-.6544s-.3408-.3245-.5761-.3108zm-2.2754 13.2209c-4.6589 2.6898-10.6359 1.0876-13.32522-3.5704-2.68929-4.658-1.08842-10.6354 3.57052-13.32523 4.6588-2.68981 10.6359-1.08752 13.3251 3.57043 2.6893 4.658 1.0885 10.6354-3.5704 13.3252zm-10.3774-17.97408c-5.25292 3.03279-7.05905 9.77338-4.02627 15.02628 3.03279 5.2529 9.77337 7.0591 15.02627 4.0263s7.0591-9.7734 4.0263-15.0263c-3.0328-5.25293-9.7734-7.05906-15.0263-4.02628z" fill="#ff7643" fill-rule="evenodd"/></svg>