<svg fill="none" height="22" viewBox="0 0 19 22" width="19" xmlns="http://www.w3.org/2000/svg"><path clip-rule="evenodd" d="m8.77515 20.8036v-7.3664c0-.6153-.50813-1.1165-1.13198-1.1165l-6.39004.083 8.97167-11.20784v7.36638c0 .61533.5082 1.11653 1.132 1.11653l6.3901-.08302zm10.10375-11.69347c-.2031-.41714-.6218-.67656-1.091-.67656h-6.3006v-7.23771c0-.514686-.3177-.956732-.8101-1.1269086-.4913-.1701774-1.02045-.018678-1.34658.3808226l-9.064296 11.176726c-.2935169.3611-.3482225.8457-.14518 1.2628.203042.4171.62175.6766 1.090956.6766h6.30061v7.2377c0 .5147.31772.9567.81007 1.1269.13466.0467.27247.0695.40819.0695.35769 0 .7017-.1588.93841-.4503l9.06432-11.1757c.2935-.3621.3482-.84569.1452-1.26387z" fill="#ff7643" fill-rule="evenodd"/></svg>