<svg fill="none" height="18" viewBox="0 0 25 18" width="25" xmlns="http://www.w3.org/2000/svg"><path clip-rule="evenodd" d="m20.8058 11.3855c0 1.1972-.9646 2.1687-2.1554 2.1687-1.1897 0-2.1553-.9715-2.1553-2.1687 0-1.1971.9656-2.16863 2.1553-2.16863 1.1908 0 2.1554.97153 2.1554 2.16863zm-12.21435 0c0 .36-.28989.6506-.6466.6506h-1.13155v1.1386c0 .3589-.28882.6506-.6466.6506-.35779 0-.6466-.2917-.6466-.6506v-1.1386h-1.13156c-.35778 0-.6466-.2906-.6466-.6506s.28882-.6506.6466-.6506h1.13156v-1.13851c0-.36.28881-.65061.6466-.65061.35778 0 .6466.29061.6466.65061v1.13851h1.13155c.35671 0 .6466.2906.6466.6506zm15.01515 1.0638c-.3955 2.0591-2.0411 3.7225-4.0962 4.1389-1.8568.3773-3.7244-.2331-4.9907-1.6319-.375-.4143-.8686-.643-1.3891-.643h-1.2609c-.5194 0-1.0119.2277-1.3859.6419-1.00219 1.1082-2.42795 1.7436-3.90974 1.7436-1.48395 0-2.90971-.6354-3.90871-1.7425-1.01409-1.1223-1.4915-2.5775-1.34709-4.0977.25649-2.68378 2.67801-4.78631 5.51336-4.78631h11.59678c1.581 0 3.066.70482 4.0747 1.93446 1.0076 1.22855 1.4096 2.84745 1.1035 4.44255zm-.1067-5.2699c-1.2544-1.53109-3.1026-2.40832-5.0715-2.40832h-5.2806v-4.120478c0-.36-.2899-.650602-.6466-.650602-.3577 0-.6466.290602-.6466.650602v4.120478h-5.02298c-3.49381 0-6.481106 2.61868-6.8000964 5.96282-.1799706 1.89.4149024 3.7008 1.6757764 5.0974 1.24471 1.3782 3.01855 2.1687 4.86676 2.1687 1.84497 0 3.61884-.7905 4.86674-2.1687.0722-.0813.2263-.2168.4289-.2168h1.2609c.2048 0 .3578.1355.4321.2179 1.2695 1.4021 3.0208 2.1676 4.8614 2.1676.444 0 .8934-.0445 1.3428-.1355 2.5627-.5205 4.6156-2.597 5.1092-5.1691.3794-1.9767-.1218-3.98817-1.3762-5.516z" fill="#ff7643" fill-rule="evenodd"/></svg>