<svg fill="none" height="22" viewBox="0 0 19 22" width="19" xmlns="http://www.w3.org/2000/svg"><path clip-rule="evenodd" d="m17.7359 13.1041h-7.6038v-5.51893l2.247 2.21256c.1232.12246.2844.18265.4466.18265.1612 0 .3234-.06019.4467-.18265.2476-.24181.2476-.63617 0-.87901l-2.2386-2.20633h4.1738c1.3937 0 2.5283 1.1177 2.5283 2.49069zm0 5.1443c0 1.373-1.1346 2.4907-2.5283 2.4907h-5.0755v-6.3907h7.6038zm-7.6038-14.89532c0-1.16335.9597-2.10878 2.1395-2.10878 1.1788 0 2.1385.94543 2.1385 2.10878 0 1.16128-.9597 2.10671-2.1385 2.10671h-2.1395zm-1.26417 2.10671h-2.1385c-1.17986 0-2.13955-.94543-2.13955-2.10671 0-1.16335.95969-2.10878 2.13955-2.10878 1.17881 0 2.1385.94543 2.1385 2.10878zm0 7.64431h-7.60379v-3.90102c0-1.37299 1.13456-2.49069 2.52828-2.49069h4.17481l-2.23963 2.20633c-.24651.24284-.24651.6372 0 .87901.24651.24387.64682.24387.89438 0l2.24595-2.21256zm0 7.635h-5.07551c-1.39372 0-2.52828-1.1177-2.52828-2.4907v-3.9h7.60379zm6.33967-15.27101h-.2981c.4782-.57805.7648-1.31384.7648-2.11501 0-1.84933-1.5265-3.35308-3.4027-3.35308-1.1419 0-2.1532.556253-2.7716 1.40827-.61732-.852017-1.62968-1.40827-2.77057-1.40827-1.87725 0-3.40369 1.50375-3.40369 3.35308 0 .80117.28654 1.53696.7648 2.11501h-.29812c-2.0911 0-3.79242 1.67498-3.79242 3.73499v9.04532c0 2.06 1.70132 3.736 3.79242 3.736h5.56642c.0453.0094.0927.0156.14116.0156.04951 0 .09586-.0062.14116-.0156h5.56644c2.0911 0 3.7924-1.676 3.7924-3.736v-9.04532c0-2.06001-1.7013-3.73499-3.7924-3.73499z" fill="#ff7643" fill-rule="evenodd"/></svg>