<svg viewBox="0 0 3000 3000" xmlns="http://www.w3.org/2000/svg"><path d="m2530.09 2607.39h-426c-9.28-11.22-6.53-24.71-6.53-37.42q-.24-314.88-.17-629.76c-.14-134.78-42.63-254.17-136.63-351.69-75.84-78.68-169.28-127-278.37-141.94-155.46-21.35-291 24.21-403.67 130.88-84.11 79.65-131.84 180-143.9 296.58-5 48-4.23 96-4.27 144q-.22 276-.17 551.9c0 12.71 2.74 26.2-6.53 37.42h-426c-120.41-17.62-195.75-90.38-242.25-198.25-9.19-21.32-12.39-43.87-11.9-67-1.08-7.74 2.43-16-2.36-23.33v-1039.71c15.71-25 40.27-41.29 61.53-60.55q81.3-73.66 163.13-146.79 82.72-73.82 165-148.2 77.32-69.53 154.56-139.24 83.25-74.94 166.62-149.78c51-45.83 101.85-91.91 152.9-137.72 61.26-55 121-111.69 184.11-164.56 71-59.5 175.92-59.1 249.72-.09 45.27 36.2 86.64 76.88 129.92 115.38 70.6 62.82 140.54 126.37 210.91 189.43q76.62 68.67 152.92 137.71 84.12 75.69 168.27 151.35 78 70.5 156.23 140.84c54.31 49 109 97.59 163 146.9 22.87 20.88 49.85 37.94 66.42 65.32v1062.65c-13.94 114.65-78.13 192.49-178.19 244.56-24.74 12.89-51.65 16.1-78.3 21.11z" fill="#f9999d"/></svg>