<svg viewBox="0 0 3000 3000" xmlns="http://www.w3.org/2000/svg"><path d="m2952.26 956.54v198.31c-4.53 89.25-26.15 174.77-57.09 258.13-55.59 149.75-134.22 287.16-226.43 417-99.09 139.53-210.12 268.9-328.17 392.95-142.06 149.29-294 287.65-451.3 420.12-225.93 190.24-560 184.54-786.43-9.88q-156.84-134.67-306.62-276.98c-163.76-154.82-313.5-321.7-445.66-503.92-118.7-163.65-218.13-337.84-272.7-534.62-18.51-66.75-29.13-134.55-29.23-203.81-.09-68.82-4.36-138.06 6.72-206.23 24.5-150.84 88.38-283.8 187.65-399.88 145.89-170.51 332.39-264.51 553.88-287.33 108.78-11.21 214.29 12.27 315.65 52.55q225 89.4 360.44 290.32c4.24 6.25 8.25 12.65 12.45 18.93 15.74 23.51 17.07 23.78 31.79.94 23.58-36.59 50-70.79 78.78-103.56 85.27-97.22 189.37-166.54 309.82-212.07 82-31 166.75-49.7 254.45-48.72 130.91 1.47 253.5 37.09 368.13 99.46 148.61 80.84 261.53 197.75 339.16 347.41 45.87 88.42 78.72 181.85 81.8 283.23a11.59 11.59 0 0 0 2.91 7.65z" fill="#f27780"/></svg>