<svg fill="none" height="23" viewBox="0 0 22 23" width="22" xmlns="http://www.w3.org/2000/svg"><path clip-rule="evenodd" d="m21.9198 11.1954c-.0321-.0683-.0699-.1332-.1261-.1902l-4.0713-4.04679c-.2682-.26644-.7036-.26531-.9729-.00113-.2681.26758-.2681.70028-.0011.96673l2.9105 2.89339h-12.09601c-.37929 0-.68753.3063-.68753.6832s.30824.682.68753.682h12.07201l-2.9106 2.8934c-.2693.2664-.2693.6991 0 .9656.1341.1332.3094.2004.4859.2004.1753 0 .3506-.0672.4847-.2004l4.045-4.0184c.1558-.1264.2601-.3097.2601-.5226 0-.1116-.0321-.2118-.0802-.3052zm-7.9411 5.4292v1.1387c0 2.8876-2.3639 5.2367-5.26991 5.2367h-6.87536c-1.010679 0-1.83343-.8176-1.83343-1.8207v-19.35743c0-1.004305.822751-1.82187 1.83343-1.82187h6.87536c2.90601 0 5.26991 2.34908 5.26991 5.23788v1.13867c0 .3769-.3071.68207-.6863.68207-.3793 0-.6876-.30517-.6876-.68207v-1.13867c0-2.135-1.7475-3.87261-3.89601-3.87261h-6.87536c-.24866 0-.4595.20951-.4595.4566v19.35743c0 .2459.21084.4554.4595.4554h6.87536c2.14851 0 3.89601-1.7364 3.89601-3.8714v-1.1387c0-.3769.3083-.6832.6876-.6832.3792 0 .6863.3063.6863.6832z" fill="#ff7643" fill-rule="evenodd"/></svg>