<svg fill="none" height="21" viewBox="0 0 18 21" width="18" xmlns="http://www.w3.org/2000/svg"><path clip-rule="evenodd" d="m13.7488 10.1821c.2428.2418.2428.6372 0 .88l-5.09242 5.0912c-.12142.1214-.28021.1826-.44003.1826-.15878 0-.31756-.0612-.43898-.1826l-2.59446-2.5944c-.24388-.2418-.24388-.6372 0-.88.24284-.2428.63616-.2428.879 0l2.15444 2.1533 4.65235-4.6501c.2429-.24281.6362-.24281.8801 0zm2.9758 7.9741c0 .8433-.6674 1.5313-1.4879 1.5313h-12.47336c-.8205 0-1.48795-.688-1.48795-1.5313v-10.92542h15.44921zm-12.80597-16.08245c.26571-.47031.75886-.76125 1.28709-.76125h3.15658v4.60578h-6.61608zm5.71907-.76125h3.1566c.5282 0 1.0214.29094 1.2871.76125l2.1724 3.84453h-6.6161zm8.2847 4.96453c-.0053-.01094-.0032-.02297-.0085-.03281l-2.7304-4.83109c-.4931-.871724-1.4082-1.41313-2.3892-1.41313h-7.58858c-.98099 0-1.89608.541406-2.38923 1.41313l-2.7304012 4.83109c-.0053141.00984-.0031885.02187-.0085026.03281-.0457015.08969-.07652338.18703-.0775862.29531v11.58386c0 1.5685 1.23925 2.8438 2.76334 2.8438h12.47336c1.524 0 2.7633-1.2753 2.7633-2.8438v-11.58167c-.0011-.11047-.0329-.20781-.0776-.2975z" fill="#ff7643" fill-rule="evenodd"/></svg>