<svg viewBox="0 0 3000 3000" xmlns="http://www.w3.org/2000/svg"><path d="m2401.12 1498.89c-2.58 152.18-58.88 284.29-179.55 391q-490.89 434-985.65 864.67c-88.78 77.52-221 78-305.5 4.65-87.35-75.87-86.69-190.59 4.76-270.72q478.92-419.64 959.7-837.66c68.61-59.61 101-126.31 71.51-210.07-13.2-37.52-42.38-65.65-73.49-92.78q-473-412.38-945.78-825c-60.94-53-94.57-112.46-74.76-189.2 36.28-140.56 227.79-195.17 350.47-98.63 49.7 39.11 95.4 82.14 142.69 123.59q422.1 370 844.07 740c126.66 111.12 189.16 245.66 191.53 400.15z" fill="#8d81d9"/></svg>