<svg viewBox="0 0 3000 3000" xmlns="http://www.w3.org/2000/svg"><path d="m2791.53 692.33v1234c-4.82 71.91-32.66 135.05-76.7 190.7-67.19 84.88-154.91 134.44-263.31 145.31-93.28 9.36-186.85 2.71-280.27 3.75-23.81.27-42.44 6.71-60.51 22q-188.4 159.82-377.35 319c-22.49 19-45.21 34.51-77 34.67-30.53.16-56.46-7.34-79.74-27.34-128.32-110.21-258.54-218.19-387-328.2-15.6-13.36-31.66-20.07-52.28-19.92-80.15.61-160.32 1.15-240.45 0-91-1.3-175-26.57-245.68-85-90.1-74.46-142.94-168.61-142.85-288.8.32-389.64 1.58-779.28-.56-1168.9-.92-166.1 128.54-316 275.9-356.52 20-5.5 40.89-4.65 61-8.89h1608.27c36.87 3.16 72.95 9 107.31 24.18 112.61 49.85 186.41 133.67 222.49 251.16 5.85 19.23 4.36 39.47 8.73 58.8z" fill="#f9999d"/><path d="m1651.09 548.67q375.24 0 750.48.06c101.41.08 176.39 58.59 195.88 153 3.26 15.81 3.48 32.45 3.49 48.7q.27 557.85.1 1115.7c0 123.68-79.44 202.65-203.29 202.72-83.14.05-166.29.79-249.42-.27-55.35-.7-102.5 17-144.52 52.83-111.16 94.92-223.43 188.54-334.45 283.62-14.54 12.46-22.49 11.7-36.44-.22-112.27-95.91-225.44-190.76-338-286.38-40.27-34.23-86.08-50.28-138.88-49.79-86.1.8-172.21.43-258.32.17-114.93-.36-196.33-80.75-196.47-196q-.67-564.52 0-1129.06c.15-115.41 80.78-194.77 197-195q376.48-.56 752.84-.08z" fill="#d3d3d3"/><g fill="#f9999d"><path d="m1652 1213.54q236 0 472.07.11c40.85.07 71.38 18.62 88.46 56 16.72 36.62 10.56 71.18-15.15 101.6-21.15 25-49.78 32.89-81.71 32.84q-223.79-.36-447.57-.11-241.6 0-483.2-.06c-58.19-.07-100.36-36.39-103.75-88.45-3.72-56.88 39.33-101.74 98.78-101.84q236-.39 472.07-.09z"/><path d="m1651.22 1783.74c-157.36 0-314.72.27-472.08-.13-68.94-.17-114.9-63.39-93-126.47 13.8-39.68 49.79-63.66 97.17-63.77 103.92-.23 207.84-.07 311.75-.07q310.64 0 621.27 0c59.61 0 101.9 36.51 104.75 89.65 3 56.06-39.59 100.45-97.84 100.62-124 .36-247.91.12-371.87.12z"/><path d="m1415 834c80.16 0 160.34-.74 240.49.29 44.4.57 81.77 34.05 89 76.2 7.67 44.86-15.36 87.93-56.25 105.43-13.24 5.66-27.1 7.2-41.3 7.19-155.88 0-311.75.28-467.63-.17-57.2-.16-98.74-41.38-98.29-95.47.44-53 41.82-93.16 98-93.54 78.68-.55 157.36-.14 236-.14z"/></g></svg>