<svg fill="none" height="22" viewBox="0 0 22 22" width="22" xmlns="http://www.w3.org/2000/svg"><path clip-rule="evenodd" d="m14.2166 8.35209c0 1.58055-1.1166 2.88811-2.5944 3.17871v1.5131c0 .3435-.2792.6217-.6227.6217s-.6217-.2782-.6217-.6217v-2.0756c0-.3435.2782-.6226.6217-.6226 1.0876 0 1.9728-.88422 1.9728-1.97181 0-1.1094-.8852-1.99359-1.9728-1.99359-1.08658 0-1.97181.88419-1.97181 1.97179 0 .34455-.27916.63305-.62267.63305s-.62163-.26671-.62163-.61125v-.0218c0-1.77357 1.44252-3.21713 3.21611-3.21713 1.7736 0 3.2171 1.44356 3.2171 3.21713zm-2.3869 7.05901c0 .4597-.3715.8323-.8302.8323s-.8292-.3726-.8292-.8323.3705-.8313.8292-.8313.8302.3716.8302.8313zm-.8302 5.3446c-5.37886 0-9.7552-4.3763-9.7552-9.7552 0-5.37882 4.37634-9.75516 9.7552-9.75516 5.3799 0 9.7562 4.37634 9.7562 9.75516 0 5.3789-4.3763 9.7552-9.7562 9.7552zm0-20.7557c-6.06483 0-10.9995 4.93467-10.9995 11.0005 0 6.0648 4.93467 10.9995 10.9995 10.9995 6.0658 0 11.0005-4.9347 11.0005-10.9995 0-6.06583-4.9347-11.0005-11.0005-11.0005z" fill="#ff7643" fill-rule="evenodd"/></svg>