<svg fill="none" height="20" viewBox="0 0 16 20" width="16" xmlns="http://www.w3.org/2000/svg"><path clip-rule="evenodd" d="m2.18 19.85c.09028.0971.2174.1516.35.15h.29c.1326.0016.25972-.0529.35-.15l1.83-1.85c.19781-.1918.51219-.1918.71 0l1.81 1.81c.09028.0971.2174.1516.35.15h.29c.1326.0016.25972-.0529.35-.15l1.81-1.81c.1936-.1732.4864-.1732.68 0l1.81 1.81c.0903.0971.2174.1516.35.15h.29c.1326.0016.2597-.0529.35-.15l1.91-1.81c.1847-.1863.2889-.4377.29-.7v-16.3c0-.552285-.4477-1-1-1h-14c-.552285 0-1 .447715-1 1v16.26c.00368349.2648.107266.5184.29.71zm6.82-8.35c0 .2761-.22386.5-.5.5h-4c-.27614 0-.5-.2239-.5-.5v-1c0-.2761.22386-.5.5-.5h4c.27614 0 .5.2239.5.5zm2.5-3.5c.2761 0 .5-.22386.5-.5v-1c0-.27614-.2239-.5-.5-.5h-7c-.27614 0-.5.22386-.5.5v1c0 .27614.22386.5.5.5z" fill="#ff7643" fill-rule="evenodd"/></svg>