<svg viewBox="0 0 3000 3000" xmlns="http://www.w3.org/2000/svg"><path d="m2566.57 2494.48v39c-17.6 74.87-93 101.76-156 55.67-10-7.3-18.39-16.24-27.07-24.91q-252-252-504.07-504c-22.3-22.3-22.43-22.38-47.77-3.21-138.26 104.56-294.23 164.55-466.13 182.17-166.66 17.08-326.6-10.31-479-80-202.8-92.83-352.73-240.62-451.36-440-47.11-95.22-77.8-196.23-86.78-302.35-16.01-189.51 9.31-371.85 102.31-540.85 87.3-158.71 208.03-284.7 366.53-374 97.42-54.9 201.22-90.31 311.41-107.76 21.21-3.36 43-1 64-6.08h13c2.76 3 6.43 2 9.82 2.23h7.93c4.24-.52 8.91 1.45 12.59-2.23h69.34c3.68 3.69 8.36 1.7 12.6 2.23h7.93c3.39-.22 7.05.75 9.81-2.23h13c53 4.55 105.8 9.82 157.46 23.79 160.15 43.31 299.88 121.65 418.41 238.32 148.78 146.48 237.92 323.23 268.57 528.92 27.65 185.52-.18 363.44-80.66 533.22a948.31 948.31 0 0 1 -98.33 162.69c-16.87 22.54-16.94 22.59 2.77 42.3q255.7 255.75 511.53 511.38c18.68 18.66 34.51 38.52 38.16 65.7z" fill="#d3d3d3"/><circle cx="1276.5" cy="1324.29" fill="#f2f2f2" r="760.02"/></svg>