<svg fill="none" height="16" viewBox="0 0 16 16" width="16" xmlns="http://www.w3.org/2000/svg"><path clip-rule="evenodd" d="m12.0625 10.8795 3.3333 3.3374c.1489.1655.1416.419-.0166.5757l-.5834.584c-.0782.079-.1847.1234-.2958.1234s-.2176-.0444-.2958-.1234l-3.3334-3.3373c-.0922-.0924-.1758-.193-.25-.3004l-.62497-.8343c-1.03412.8267-2.31829 1.2769-3.64167 1.2765-2.72699.0095-5.09664-1.8739-5.706053-4.53518-.6094116-2.66125.704063-5.3901 3.162803-6.57099 2.45875-1.180895 5.40656-.498669 7.09829 1.64278 1.6917 2.14144 1.6757 5.17059-.0384 7.29409l.8334.5757c.1301.0834.2503.1814.3583.292zm-9.875-4.53878c0 2.30396 1.86548 4.17168 4.16666 4.17168 1.10507 0 2.16488-.4395 2.94628-1.22185.78136-.78234 1.22036-1.84343 1.22036-2.94983 0-2.30396-1.86545-4.17169-4.16664-4.17169-2.30118 0-4.16666 1.86773-4.16666 4.17169z" fill="#757575" fill-rule="evenodd"/></svg>