<svg viewBox="0 0 3000 3000" xmlns="http://www.w3.org/2000/svg"><g fill="#e2e2e2"><path d="m1323.56 980.89c16.81 6.63 30.56 16.5 35.48 35 8.25 31.11-14.09 59.69-47.55 60.23-30.45.49-60.92 0-91.39.13-73.23.43-129.85 47.8-143 119.86-1.58 8.69-1.62 17.74-1.68 26.63-.2 29.34.11 58.7-.13 88s-20.66 50.92-47.72 51-47.88-21.6-47.49-50.93c.54-40.46-2.3-81 1.91-121.37 10.35-99.14 91.87-186.64 190-204.23 5.92-1.06 12.44-.25 17.65-4.37z"/><path d="m2122.26 1913.45c-4.73 7.73-4.2 16.8-6.17 25.21-25.09 107.1-119.33 183.2-229.11 184.41-31.94.35-63.9.2-95.85 0-28.38-.13-49.77-20.74-49.76-47.59 0-26.25 20.94-47.18 48.71-47.63 30.09-.49 60.19 0 90.28-.13 84.65-.28 146.08-61.44 146.5-145.92.15-30.09-.25-60.19.12-90.27.32-26.14 16.64-44.84 41.53-48.69 22.41-3.46 43.12 9.88 51.61 33.17a21.43 21.43 0 0 0 2.14 3.53z"/><path d="m2122.26 1324.46c-6.62 16.84-16.54 30.55-35.06 35.48-31.1 8.27-59.72-14.16-60.21-47.61-.45-30.48.08-61-.15-91.45-.54-73.32-48-129.91-120.15-142.91-8.7-1.57-17.76-1.57-26.65-1.63-28.63-.2-57.25 0-85.88-.09-28.39-.09-47.57-15.11-51.91-40.46-4.09-23.93 8.76-43.47 35-53.35.59-.22 1-1 1.41-1.55h129.4c10.44 2.34 21.32 1 31.7 3.83q139.21 37.62 178.16 176.47c2.91 10.38 1.84 21.24 4.32 31.64z"/><path d="m1569.16 1885c-84.78 0-169.56.25-254.33-.08-71.27-.27-128-46.81-141.9-116.08a151.76 151.76 0 0 1 -2.63-28.81c-.29-38.67 0-77.34-.15-116-.1-29.35 10-54.23 31-75 35.16-34.77 69.82-70 105-104.82 58.17-57.52 146-58.08 203.91-.5q179.12 178.21 357.45 357.18c15.76 15.75 21.47 34.12 12.93 54.83s-25.6 29.42-48 29.36c-87.78-.22-175.53-.08-263.28-.08z"/><path d="m1250.21 2123.14c-31.51.83-71.31.17-110.19-13.06-91.63-31.21-158.24-121-159.85-217.72-.56-33.45-.27-66.91-.14-100.36.11-28.4 20.82-49.85 47.64-49.75 26.32.1 47.1 20.94 47.56 48.84.52 32-.21 63.94.27 95.9.71 48.28 21.48 86.48 60.29 114.68 22.43 16.3 47.81 25.45 75.72 25.84 33.44.47 66.9 0 100.35.36 20.34.22 35.93 9.4 44.47 28.05 8.12 17.74 5.54 34.92-6.8 50.08-9.16 11.26-21.45 17-36 17.1-18.22.18-36.43.04-63.32.04z"/><path d="m1742.08 1243.42c65.47.39 118.31 53.23 118.52 118.52.21 66-53.94 119.52-120.28 119a118.8 118.8 0 0 1 -117.76-120.17c.63-65.18 54.17-117.77 119.52-117.35z"/></g></svg>