<svg viewBox="0 0 3000 3000" xmlns="http://www.w3.org/2000/svg"><path d="m1855.81 2630.55h-94.06c-65.24-4.5-124.46-26.93-179.57-61-32-19.77-61-43.51-87.75-69.85-45.61-44.95-91.14-90-135.72-136-20.93-21.58-44.86-30.9-74.75-30.62-85.83.83-171.69 1.17-257.51.06-93.82-1.21-170-39.13-226-115.09-33.87-45.93-49.6-98.36-50.1-155q-1.17-132.82 0-265.68c.21-28.39-8.86-51.26-29.22-71.18-48.67-47.65-97.16-95.54-144.5-144.51-55.92-57.86-95.47-125.41-115.5-203.91-5.06-19.82-3.65-40.35-8.15-60.15v-24.53a117 117 0 0 0 0-49.08v-28.63c6.31-62.5 24.94-121 58.43-174.25 68.78-109.3 165.97-178.98 292.91-204.53 145.6-29.32 290.75-60.69 436.12-91.06q247.07-51.63 493.93-104.18c145.26-30.92 290.78-60.59 435.88-92.24 27.23-5.94 54.94-7.81 82.28-12.56h49.07c6.58 4.28 13.9 1.13 20.81 2.11 70 1.15 122.22 37.16 165.85 87.33 34.5 39.68 56.52 85.76 58.73 139.59v8.18a116.67 116.67 0 0 0 0 49.08v12.27c-53.95 292.73-121.06 582.73-180.81 874.26q-58.71 286.39-120.07 572.21c-37.82 176.35-147.21 288.92-320 339.95-22.84 6.75-47 4.85-70.3 9.01z" fill="#8d81d9"/><g fill="#e2e2e2"><path d="m1059.59 2152.35 1302.57-1303.51c2.42.49.72 3.95.31 5.92q-78.41 373.31-157 746.58c-44.84 213.61-88.89 427.39-134.26 640.89-21.22 99.82-80.12 169.19-177.88 200.16-97.6 30.92-186 9.49-260.64-60.73-51.09-48.09-99.86-98.65-149.29-148.48-54.14-54.59-119.49-81.16-196.21-80.88-69.51.25-139 0-208.53 0z"/><path d="m2236.26 720.58-1305.26 1304.26v-23.34q0-103.23 0-206.46c0-75.85-26.27-140.81-80.24-194.44-48.82-48.51-97.86-96.81-146-146-71.3-72.83-94.87-159.81-66.36-257.26 29.15-99.63 97.08-162.45 199-184q512.76-108.51 1025.95-215.06 181.68-38.07 363.28-76.59c2.59-.54 5.28-.62 9.63-1.11z"/></g></svg>