<svg fill="none" height="22" viewBox="0 0 22 22" width="22" xmlns="http://www.w3.org/2000/svg"><path clip-rule="evenodd" d="m20.7557 12.4331c0 .0861-.0695.1557-.1557.1557h-.9776c-.5946 0-1.1291.3891-1.3273.9692-.0934.2698-.2003.5334-.3259.7877-.2708.5541-.1691 1.2089.2553 1.6313l.6871.6828c.0373.0374.0456.0799.0456.11s-.0073.0737-.0446.111l-2.031 2.0299c-.0384.0384-.0819.0467-.111.0467s-.0726-.0083-.11-.0467l-.6839-.687c-.4213-.4245-1.0772-.5251-1.6324-.2543-.2522.1246-.5148.2325-.7846.3238-.5801.1993-.9703.7337-.9703 1.3293v.9766c0 .0861-.0706.1556-.1567.1556h-2.86536c-.08614 0-.15671-.0695-.15671-.1556v-.9766c0-.5956-.3902-1.13-.97136-1.3293-.26879-.0913-.53135-.1992-.78457-.3238-.20652-.1017-.42757-.1504-.6455-.1504-.3653 0-.72126.139-.9859.4047l-.68286.687c-.0384.0384-.08198.0467-.11104.0467s-.07265-.0083-.11001-.0457l-2.0299-2.0298c-.03944-.0384-.04567-.082-.04567-.1121s.00727-.0726.04567-.11l.68805-.6828c.42237-.4224.52512-1.0772.25322-1.6313-.12454-.2543-.23247-.5179-.32587-.7866-.19822-.5801-.73164-.9703-1.32733-.9703h-.97655c-.08614 0-.15671-.0696-.15671-.1557v-2.86621c0-.0851.07057-.15566.15671-.15566h.97655c.59569 0 1.12911-.39019 1.32733-.96925.0934-.26981.20133-.5334.32587-.7866.2719-.55519.16915-1.21-.25426-1.63132l-.68701-.68387c-.0384-.03736-.04567-.07991-.04567-.10896 0-.0301.00623-.07368.04463-.11104l2.03094-2.03085c.03736-.0384.08095-.04566.11001-.04566s.07264.00726.11104.04566l.6839.68802c.42134.42339 1.07515.52405 1.6314.25321.25218-.12453.51474-.23246.78456-.32378.58012-.19924.97033-.73264.97033-1.3283v-.97755c0-.08509.07057-.15566.15671-.15566h2.86536c.0861 0 .1567.07057.1567.15566v.97755c0 .59566.3902 1.12906.9713 1.3283.2688.09132.5314.19925.7846.32378.5531.27292 1.209.16915 1.6324-.25425l.6829-.68594c.0374-.03944.0809-.0467.11-.0467s.0726.00726.111.04566l2.03 2.02981c.0383.0384.0456.08198.0456.11208 0 .02905-.0083.0716-.0456.11l-.6881.68283c-.4234.42132-.5251 1.07613-.2543 1.63132.1256.2532.2325.51679.3259.78556.1982.5801.7316.97029 1.3273.97029h.9776c.0862 0 .1557.07056.1557.15566zm-.1557-4.26716h-.9776c-.0778 0-.1287-.06641-.1494-.12971-.11-.31859-.2377-.62991-.384-.92981-.029-.05708-.0415-.14425.0125-.20029l.687-.68179c.2657-.26359.413-.61538.4141-.99.001-.37566-.1443-.72849-.411-.99519l-2.031-2.03189c-.2646-.26358-.6154-.40886-.99-.40886h-.0021c-.3746 0-.7264.14735-.9921.41302l-.6818.68698c-.0561.05603-.1401.04462-.2003.01452-.301-.14735-.6123-.27603-.9309-.385-.0602-.01971-.1297-.0716-.1297-.14943v-.97755c0-.772072-.6279-1.40094-1.401-1.40094h-2.86536c-.77211 0-1.40101.628868-1.40101 1.40094v.97755c0 .07783-.06953.12972-.12869.14943-.31963.10897-.62993.23765-.92985.385-.06331.02906-.14841.03944-.20133-.01452l-.68286-.68698c-.26568-.26567-.61749-.41302-.99213-.41302h-.00207c-.3736 0-.72541.14528-.99005.4099l-2.03198 2.03189c-.26567.26566-.41096.61849-.40993.99415.00104.37462.14841.72641.41408.98896l.68598.68283c.05604.05604.04254.14321.01452.20029-.14736.2999-.27501.61122-.38398.93084-.02179.06227-.07264.12868-.15048.12868h-.97655c-.77315 0-1.40101.62887-1.40101 1.40095v2.86621c0 .7731.62786 1.401 1.40101 1.401h.97655c.07784 0 .12869.0664.15048.1297.10897.3196.23662.6309.38398.9298.02802.0581.04152.1453-.01349.2003l-.68701.6828c-.26567.2636-.41304.6143-.41408.989-.00103.3756.14426.7285.41097.9951l2.03094 2.0319c.26464.2636.61645.4089.99005.4089h.00207c.37464 0 .72645-.1474.99213-.413l.68182-.687c.05708-.055.14218-.0436.20133-.0135.30096.1474.61126.275.92986.384.06019.0207.12972.0726.12972.1504v.9766c0 .7731.6289 1.4009 1.40101 1.4009h2.86536c.7731 0 1.401-.6278 1.401-1.4009v-.9766c0-.0778.0695-.1297.1287-.1504.3196-.109.6309-.2366.9308-.384.0613-.0311.1464-.0415.2003.0135l.6829.687c.2657.2656.6175.413.9921.413h.0021c.3746 0 .7254-.1453.99-.4099l2.032-2.0319c.2657-.2656.411-.6185.41-.9941-.0011-.3747-.1484-.7254-.4141-.989l-.686-.6828c-.055-.055-.0425-.1422-.0135-.2003.1463-.2989.274-.6102.384-.9298.0207-.0633.0716-.1297.1494-.1297h.9776c.7721 0 1.4-.6279 1.4-1.401v-2.86621c0-.77208-.6279-1.40095-1.4-1.40095zm-9.5995 5.84346c-1.6594 0-3.01059-1.3501-3.01059-3.0094 0-1.65934 1.35119-3.00943 3.01059-3.00943 1.6584 0 3.0096 1.35009 3.0096 3.00943 0 1.6593-1.3512 3.0094-3.0096 3.0094zm0-7.26412c-2.34641 0-4.2549 1.9084-4.2549 4.25472 0 2.3463 1.90849 4.2547 4.2549 4.2547 2.3454 0 4.2539-1.9084 4.2539-4.2547 0-2.34632-1.9085-4.25472-4.2539-4.25472z" fill="#ff7643" fill-rule="evenodd"/></svg>