<svg fill="none" height="21" viewBox="0 0 22 21" width="22" xmlns="http://www.w3.org/2000/svg"><path clip-rule="evenodd" d="m19.8727 9.98723c-.0114.00412-.0208.01135-.0311.01757-.3053.1919-.6634.3064-1.0507.3064-1.088 0-1.9735-.87905-1.9735-1.95928 0-.34254-.2783-.62007-.6219-.62007-.3447 0-.6229.27753-.6229.62007 0 1.08023-.8856 1.95928-1.9725 1.95928-1.088 0-1.9736-.87905-1.9736-1.95928 0-.34254-.2782-.62007-.6219-.62007-.3446 0-.6229.27753-.6229.62007 0 1.08023-.88553 1.95928-1.9725 1.95928-1.08801 0-1.97357-.87905-1.97357-1.95928 0-.34254-.27823-.62007-.62186-.62007-.34468 0-.62291.27753-.62291.62007 0 1.08023-.88556 1.95928-1.97252 1.95928-.37271 0-.71842-.1083-1.01638-.2837-.02803-.0155-.05294-.03202-.08305-.04337-.52739-.34357-.87726-.91721-.88245-1.53007l.93851-5.57448c.15884-.95126.979-1.64046 1.95073-1.64046h13.7568c.9718 0 1.7919.6892 1.9508 1.64149l.9302 5.47131c0 .68301-.3551 1.28452-.8908 1.63531zm-.3893 7.80927c0 1.0833-.8866 1.9654-1.9777 1.9654h-3.2786v-4.551c0-.3415-.2792-.619-.6229-.619h-5.20019c-.34364 0-.6229.2775-.6229.619v4.551h-3.27855c-1.09112 0-1.97772-.8821-1.97772-1.9654v-6.3256c.2232.0485.45472.0794.6935.0794 1.06412 0 2.00886-.5159 2.59543-1.3093.58553.7934 1.53026 1.3093 2.59543 1.3093 1.06413 0 2.0089-.5159 2.5954-1.3093.5856.7934 1.5303 1.3093 2.5955 1.3093 1.0641 0 2.0088-.5159 2.5954-1.3093.5855.7934 1.5303 1.3093 2.5954 1.3093.2388 0 .4693-.0309.6925-.0805zm-10.45752 1.9654h3.95652v-3.9309h-3.95652zm12.03662-17.08557c-.2596-1.5507-1.5968-2.67633-3.18-2.67633h-13.7568c-1.58321 0-2.92038 1.12563-3.179924 2.67633l-.945776 5.67559c0 1.0369.507667 1.95098 1.27903 2.53598v6.9086c0 1.7663 1.44617 3.2035 3.22353 3.2035h13.00314c1.7773 0 3.2235-1.4372 3.2235-3.2035v-6.9168c.7703-.5953 1.2759-1.53318 1.2707-2.63095z" fill="#ff7643" fill-rule="evenodd"/></svg>