<svg fill="none" height="12" viewBox="0 0 13 12" width="13" xmlns="http://www.w3.org/2000/svg"><path clip-rule="evenodd" d="m12.7201 5.50474c.2612-.27152.3458-.64397.2275-.99517-.1184-.3518-.4151-.60443-.7916-.67644l-3.02827-.57609c-.0889-.01712-.16554-.07083-.2103-.14697l-1.50464-2.594775c-.18762-.322871-.52914-.515295-.91296-.515295-.38383 0-.72473.192424-.91235.515295l-1.50464 2.594775c-.04476.07614-.1214.12985-.21092.14697l-3.027668.57609c-.377079.07201-.673224.32464-.7915599.67644-.1189486.3512-.0337226.72365.2274739.99517l2.098154 2.17923c.06131.06434.09075.15111.07971.23788l-.36604 2.95065c-.04538.3672.1122.7166.42367.9338.18394.1287.3967.1936.6113.1936.14899 0 .29921-.0312.44146-.0944l2.80142-1.2478c.08278-.0366.1772-.0366.25997 0l2.80204 1.2478c.34765.1546.74065.118 1.05215-.0992s.4697-.5666.4243-.9338l-.3667-2.95006c-.011-.08736.0184-.17413.081-.23847z" fill="#ffc416" fill-rule="evenodd"/></svg>