<svg fill="none" height="14" viewBox="0 0 16 14" width="16" xmlns="http://www.w3.org/2000/svg"><path d="m15.9821 1.5867c-.5869.26044-1.2173.4365-1.8801.51564.6765-.40507 1.1947-1.04696 1.4394-1.810916-.6426.381652-1.3459.650334-2.0792.794376-.5968-.636143-1.4479-1.0333098-2.3894-1.0333098-1.80724 0-3.27291 1.4650798-3.27291 3.2733698 0 .25622.02886.50618.08434.74617-2.72056-.13673-5.1325-1.4399-6.74694-3.420071-.281905.483611-.443265 1.045901-.443265 1.645831 0 1.13552.577965 2.1374 1.456165 2.72427-.51988-.01611-1.02835-.15643-1.48291-.40925v.04137c0 1.58613 1.12817 2.90869 2.62574 3.20949-.2751.07537-.56381.11475-.86249.11475-.21117 0-.41605-.01998-.6162-.05763.41656 1.30005 1.62547 2.24631 3.05747 2.27311-1.12031.8782-2.53194 1.4017-4.065131 1.4017-.264074 0-.525063-.0158-.7812784-.0466 1.4488594.929 3.1691394 1.4713 5.0177794 1.4713 6.02073 0 9.31353-4.98788 9.31353-9.31345 0-.14201-.0032-.28296-.01-.42341.6415-.46402 1.1953-1.03857 1.6354-1.69674z" fill="#2daae1"/></svg>