<svg fill="none" height="22" viewBox="0 0 22 22" width="22" xmlns="http://www.w3.org/2000/svg"><path clip-rule="evenodd" d="m20.3955 20.1586c-.2832.3536-.7254.5644-1.1828.5644h-16.42537c-.45744 0-.89963-.2108-1.18281-.5644-.26684-.3323-.35833-.7338-.25922-1.1311 1.09677-4.3495 5.06669-7.388 9.6552-7.388 4.5875 0 8.5574 3.0385 9.6542 7.388.0991.3973.0076.7988-.2592 1.1311zm-14.04014-14.3383c0-2.50385 2.08352-4.54228 4.64514-4.54228 2.5606 0 4.6441 2.03843 4.6441 4.54228 0 2.50492-2.0835 4.5412-4.6441 4.5412-2.56162 0-4.64514-2.03628-4.64514-4.5412zm15.56814 12.9016c-.9845-3.9065-4.0167-6.8768-7.82-7.9376 1.7067-1.02451 2.8481-2.86592 2.8481-4.964 0-3.20889-2.6695-5.8203-5.9511-5.8203-3.28263 0-5.95211 2.61141-5.95211 5.8203 0 2.09808 1.14142 3.93949 2.8481 4.964-3.80328 1.0608-6.83545 4.0311-7.8200348 7.9376-.1949562.7743-.0130697 1.5858.4999158 2.2237.535859.671 1.342909 1.0544 2.210959 1.0544h16.42537c.868 0 1.6751-.3834 2.2109-1.0544.513-.6379.6949-1.4494.4999-2.2237z" fill="#b6b6b6" fill-rule="evenodd"/></svg>